<svg width="49" height="49" viewBox="0 0 49 49" fill="none" xmlns="http://www.w3.org/2000/svg">
<path fill-rule="evenodd" clip-rule="evenodd" d="M14.4082 44.8052C20.0012 50.3983 28.9988 50.3983 34.5918 44.8052L44.8052 34.5918C50.3983 28.9988 50.3983 20.0012 44.8052 14.4082L34.5918 4.19479C28.9988 -1.39826 20.0012 -1.39826 14.4082 4.19479L4.19479 14.4082C-1.39826 20.0012 -1.39826 28.9988 4.19479 34.5918L14.4082 44.8052ZM21.9457 12.4628C22.432 11.9764 23.1616 11.7333 23.8911 11.7333C25.107 11.7333 25.5933 11.9764 25.8365 12.2196C27.0524 13.1923 27.5387 15.6241 27.5387 18.7854C27.5387 23.6489 26.566 27.5397 24.3774 30.9442C24.1343 31.6737 24.1343 32.4032 24.8638 32.8896C25.107 33.1328 25.3501 33.1328 25.5933 33.1328C26.0797 33.1328 26.566 32.8896 26.8092 32.4032C29.9705 27.5397 30.4568 21.9467 30.4568 19.0286C30.7 16.1104 30.2137 12.4628 28.0251 10.2742C27.0524 9.30151 25.5933 8.81516 24.1343 8.81516H23.8911C22.432 8.81516 20.973 9.30151 20.0003 10.2742C17.8117 12.4628 17.5685 16.3536 17.5685 19.0286C17.5685 20.0013 17.8117 30.4578 22.1888 36.0509C22.9184 37.0236 23.6479 37.7531 24.3774 38.2395C24.5501 38.3258 24.7228 38.4198 24.8995 38.516C25.7185 38.9618 26.625 39.4554 28.0251 39.4554C28.2683 39.4554 28.5114 39.3946 28.7546 39.3338C28.9978 39.273 29.241 39.2122 29.4841 39.2122C31.9159 38.7258 34.5908 36.5372 36.7794 33.1328C37.0226 32.8896 37.0226 32.4032 37.0226 32.1601C37.0226 31.9169 36.7794 31.6737 36.5363 31.4306L36.5362 31.4305C36.2931 31.1874 36.0499 31.1874 35.8067 31.1874C35.3204 31.1874 34.834 31.4305 34.5908 31.9169C32.8886 34.3487 30.7 36.2941 28.9978 36.7804H28.2683C27.446 36.7804 26.7976 36.4329 26.3229 36.1785C26.236 36.132 26.1549 36.0885 26.0797 36.0509C25.3501 35.8077 24.8638 35.3214 24.3774 34.5918C21.2161 30.4578 20.2434 22.9194 20.2434 19.0286C20.2434 15.8673 20.7298 13.6787 21.9457 12.4628ZM17.084 37.9961C17.084 38.7256 17.8135 39.4552 18.5431 39.4552C19.2726 39.4552 20.0021 38.7256 20.0021 37.9961C20.0021 37.2666 19.2726 36.5371 18.5431 36.5371C18.2999 36.5371 17.8135 36.7802 17.5704 37.0234C17.3272 37.2666 17.084 37.5098 17.084 37.9961Z" fill="white"/>
</svg>
