<svg width="142" height="73" viewBox="0 0 142 73" fill="none" xmlns="http://www.w3.org/2000/svg">
<path fill-rule="evenodd" clip-rule="evenodd" d="M59.4082 44.8052C65.0012 50.3983 73.9988 50.3983 79.5918 44.8052L89.8052 34.5918C95.3983 28.9988 95.3983 20.0012 89.8052 14.4082L79.5918 4.19479C73.9988 -1.39826 65.0012 -1.39826 59.4082 4.19479L49.1948 14.4082C43.6017 20.0012 43.6017 28.9988 49.1948 34.5918L59.4082 44.8052ZM66.9457 12.4628C67.432 11.9764 68.1616 11.7333 68.8911 11.7333C70.107 11.7333 70.5933 11.9764 70.8365 12.2196C72.0524 13.1923 72.5387 15.6241 72.5387 18.7854C72.5387 23.6489 71.566 27.5397 69.3774 30.9442C69.1343 31.6737 69.1343 32.4032 69.8638 32.8896C70.107 33.1328 70.3501 33.1328 70.5933 33.1328C71.0797 33.1328 71.566 32.8896 71.8092 32.4032C74.9705 27.5397 75.4568 21.9467 75.4568 19.0286C75.7 16.1104 75.2137 12.4628 73.0251 10.2742C72.0524 9.30151 70.5933 8.81516 69.1343 8.81516H68.8911C67.432 8.81516 65.973 9.30151 65.0003 10.2742C62.8117 12.4628 62.5685 16.3536 62.5685 19.0286C62.5685 20.0013 62.8117 30.4578 67.1888 36.0509C67.9184 37.0236 68.6479 37.7531 69.3774 38.2395C69.5501 38.3258 69.7228 38.4198 69.8995 38.516C70.7185 38.9618 71.625 39.4554 73.0251 39.4554C73.2683 39.4554 73.5114 39.3946 73.7546 39.3338C73.9978 39.273 74.241 39.2122 74.4841 39.2122C76.9159 38.7258 79.5908 36.5372 81.7794 33.1328C82.0226 32.8896 82.0226 32.4032 82.0226 32.1601C82.0226 31.9169 81.7794 31.6737 81.5363 31.4306L81.5362 31.4305C81.2931 31.1874 81.0499 31.1874 80.8067 31.1874C80.3204 31.1874 79.834 31.4305 79.5908 31.9169C77.8886 34.3487 75.7 36.2941 73.9978 36.7804H73.2683C72.446 36.7804 71.7976 36.4329 71.3229 36.1785C71.236 36.132 71.1549 36.0885 71.0797 36.0509C70.3501 35.8077 69.8638 35.3214 69.3774 34.5918C66.2161 30.4578 65.2434 22.9194 65.2434 19.0286C65.2434 15.8673 65.7298 13.6787 66.9457 12.4628ZM62.084 37.9961C62.084 38.7256 62.8135 39.4552 63.5431 39.4552C64.2726 39.4552 65.0021 38.7256 65.0021 37.9961C65.0021 37.2666 64.2726 36.5371 63.5431 36.5371C63.2999 36.5371 62.8135 36.7802 62.5704 37.0234C62.3272 37.2666 62.084 37.5098 62.084 37.9961Z" fill="white"/>
<path d="M17.6411 60C19.3935 60.0186 20.9493 60.3349 22.3258 61.2673C23.7964 62.2634 24.6724 63.6438 24.8846 65.415C25.1254 67.425 24.5618 69.1693 23.0716 70.5702C22.1076 71.4764 20.9363 71.9939 19.649 72.2369C18.0139 72.5458 16.3862 72.5031 14.8032 71.9521C12.7542 71.239 11.305 69.9019 10.76 67.7561C9.95206 64.5753 11.5956 61.5956 14.7093 60.4945C15.6963 60.1454 16.7184 60.0109 17.6411 60ZM13.9197 66.3816C13.9333 66.5457 13.9401 66.8648 13.9894 67.1771C14.1807 68.3907 14.6495 69.4706 15.5939 70.2936C16.3801 70.9785 17.2947 71.2721 18.3342 71.0752C19.3264 70.8874 20.0632 70.3094 20.6271 69.4975C21.1876 68.6906 21.4833 67.7841 21.5639 66.81C21.6905 65.281 21.3844 63.8592 20.4093 62.6418C18.9883 60.8676 16.6624 60.8283 15.1828 62.5452C14.2738 63.6003 13.9283 64.8592 13.9197 66.3816Z" fill="white"/>
<path d="M64.279 71.9007C64.1511 71.9007 64.0526 71.9007 63.9543 71.9007C60.9762 71.9017 57.9982 71.902 55.0202 71.9039C54.1453 71.9045 53.5735 71.3398 53.5733 70.4667C53.5731 67.6142 53.5824 64.7616 53.5684 61.9092C53.5642 61.0692 54.2026 60.461 55.0134 60.4673C57.9996 60.4909 60.9861 60.4762 63.9724 60.4759C64.0627 60.4759 64.1528 60.4759 64.2607 60.4759C64.2607 60.9115 64.2607 61.3169 64.2607 61.7516C64.1594 61.756 64.0631 61.764 63.9668 61.764C61.9173 61.7647 59.8679 61.7645 57.8183 61.7645C57.2377 61.7645 56.9598 62.0415 56.9591 62.6223C56.9581 63.3836 56.9679 64.1451 56.9521 64.9059C56.947 65.1488 57.0382 65.2003 57.2568 65.1997C59.4402 65.1941 61.6235 65.1963 63.8068 65.1962C64.1465 65.1962 64.1467 65.1962 64.1476 65.5435C64.1481 65.7611 64.1346 65.9796 64.152 66.1957C64.17 66.4202 64.0847 66.4785 63.8666 66.4775C62.135 66.4696 60.4034 66.4734 58.6718 66.4736C58.1783 66.4736 57.6846 66.479 57.1913 66.471C57.0229 66.4683 56.9552 66.5151 56.9565 66.6959C56.9638 67.7499 56.9577 68.8039 56.9627 69.8579C56.9645 70.2561 57.2181 70.534 57.6123 70.587C57.7195 70.6015 57.8289 70.6056 57.9372 70.6056C59.9365 70.6064 61.9358 70.6059 63.9351 70.6056C64.2784 70.6056 64.2786 70.6056 64.279 70.9539C64.2791 71.2613 64.279 71.569 64.279 71.9007Z" fill="white"/>
<path d="M46.815 71.8905C45.6211 71.8905 44.469 71.8905 43.288 71.8905C43.288 68.5386 43.288 65.1896 43.288 61.8043C41.9433 61.8043 40.6268 61.8043 39.2752 61.8043C39.2752 61.3792 39.2713 60.9895 39.281 60.6C39.2819 60.559 39.3573 60.4983 39.4081 60.4851C39.4868 60.4645 39.574 60.4757 39.6576 60.4757C43.5136 60.4755 47.3697 60.4757 51.2257 60.4758C51.5804 60.4758 51.5804 60.4765 51.5806 60.8296C51.5807 61.1374 51.5806 61.4451 51.5806 61.7941C49.9854 61.7941 48.411 61.7941 46.815 61.7941C46.815 65.1782 46.815 68.5207 46.815 71.8905Z" fill="white"/>
<path d="M30.3849 61.7972C28.7837 61.7972 27.2153 61.7972 25.6163 61.7972C25.6163 61.3794 25.6115 60.9974 25.6225 60.6156C25.6239 60.569 25.7032 60.5072 25.7593 60.4846C25.8173 60.4611 25.8912 60.4756 25.958 60.4756C29.8402 60.4755 33.7223 60.4756 37.6045 60.4757C37.6952 60.4757 37.7858 60.4757 37.8992 60.4757C37.8992 60.9205 37.8992 61.3406 37.8992 61.7939C36.5706 61.7939 35.2531 61.7939 33.9129 61.7939C33.9129 65.1701 33.9129 68.5137 33.9129 71.8794C32.7331 71.8794 31.5759 71.8794 30.3849 71.8794C30.3849 68.5316 30.3849 65.1825 30.3849 61.7972Z" fill="white"/>
<path d="M10.0773 70.5777C10.0773 70.9941 10.082 71.3772 10.0714 71.76C10.07 71.8077 9.99379 71.865 9.93964 71.8954C9.9012 71.9171 9.84154 71.9013 9.79139 71.9013C6.99697 71.9015 4.20255 71.902 1.40799 71.9008C0.721717 71.9005 0.224888 71.5511 0.0460514 70.9376C0.00954014 70.8122 0.00113563 70.675 0.00113563 70.5433C-0.000793269 67.2971 0.000171199 64.0507 0.000860091 60.8045C0.000997869 60.4768 0.00182453 60.4757 0.329048 60.4755C1.2326 60.4751 2.13642 60.4845 3.0397 60.4699C3.29597 60.4657 3.36527 60.5454 3.36458 60.7964C3.35687 63.6997 3.36679 66.6028 3.35411 69.5061C3.35108 70.1888 3.49933 70.6039 4.43636 70.5869C6.21783 70.5548 8.00041 70.5776 9.78243 70.5776C9.8651 70.5777 9.94777 70.5777 10.0773 70.5777Z" fill="white"/>
<path d="M71.6279 72.1631H73.687V67.2248H79.2781V72.1631H81.3372V60.445H79.2781V65.3164H73.687V60.445H71.6279V72.1631Z" fill="white"/>
<path d="M90.6072 72.364C94.2064 72.364 96.7508 69.6018 96.7508 66.304V66.2706C96.7508 62.9728 94.2398 60.2441 90.6407 60.2441C87.0416 60.2441 84.4971 63.0063 84.4971 66.304V66.3375C84.4971 69.6353 87.0081 72.364 90.6072 72.364ZM90.6407 70.4723C88.3139 70.4723 86.6566 68.5807 86.6566 66.304V66.2706C86.6566 63.9939 88.2804 62.1358 90.6072 62.1358C92.9341 62.1358 94.5914 64.0274 94.5914 66.304V66.3375C94.5914 68.6142 92.9676 70.4723 90.6407 70.4723Z" fill="white"/>
<path d="M102.15 72.1631H104.226V62.3534H107.942V60.445H98.4336V62.3534H102.15V72.1631Z" fill="white"/>
<path d="M110.795 72.1631H119.567V70.3217H112.854V67.1745H118.73V65.3331H112.854V62.2864H119.483V60.445H110.795V72.1631Z" fill="white"/>
<path d="M122.679 72.1631H130.899V70.2882H124.738V60.445H122.679V72.1631Z" fill="white"/>
<path d="M137.815 72.3305C140.275 72.3305 142 71.0247 142 68.8318V68.7983C142 66.8565 140.711 65.9692 138.233 65.3666C135.99 64.8309 135.454 64.4292 135.454 63.5252V63.4917C135.454 62.7217 136.157 62.1023 137.363 62.1023C138.434 62.1023 139.489 62.5208 140.543 63.3076L141.648 61.7507C140.46 60.7966 139.104 60.2776 137.396 60.2776C135.069 60.2776 133.395 61.667 133.395 63.6759V63.7093C133.395 65.8688 134.801 66.6054 137.296 67.208C139.472 67.7102 139.941 68.1622 139.941 68.9992V69.0327C139.941 69.9199 139.137 70.5058 137.865 70.5058C136.408 70.5058 135.287 69.9534 134.165 68.9825L132.927 70.4556C134.333 71.7111 136.023 72.3305 137.815 72.3305Z" fill="white"/>
</svg>
